<svg width="28" height="24" viewBox="0 0 28 24" fill="none" xmlns="http://www.w3.org/2000/svg">
<path d="M19.1997 0.799805C23.1591 0.799805 26.3408 3.84285 26.646 7.77344L26.6665 8.15723V8.40039C26.6664 10.5895 25.8178 12.5044 24.3931 13.8105L24.1333 14.0479V14.1455C24.1082 14.1665 24.0814 14.188 24.0542 14.2109C23.8469 14.3858 23.5651 14.6286 23.229 14.9209C22.5559 15.5062 21.6536 16.2995 20.6704 17.166C18.7041 18.899 16.4127 20.9249 14.9497 22.1885C14.4475 22.6034 13.6841 22.6038 13.1821 22.1885C11.7169 20.923 9.38959 18.8944 7.40967 17.1641C6.41831 16.2977 5.5141 15.5067 4.8501 14.9238C4.51826 14.6326 4.24677 14.3937 4.0542 14.2236C4.03493 14.2066 4.01669 14.19 3.99951 14.1748V14.0684L3.76514 13.834C2.30704 12.3757 1.46642 10.4429 1.46631 8.40039V8.15723C1.58665 4.19227 4.96296 0.933629 8.93311 0.933594C9.57081 0.933594 10.3742 1.15149 11.1538 1.57129C11.9091 1.97797 12.5825 2.54387 13.0298 3.19141C13.4692 4.14914 14.8416 4.13545 15.2544 3.15039C15.6321 2.46658 16.2925 1.87411 17.0562 1.44824C17.8351 1.01387 18.6349 0.799837 19.1997 0.799805Z" fill="#FF68CC" stroke="#FF68CC" stroke-width="1.6"/>
</svg>
